<?xml version="1.0" encoding="UTF-8" standalone="no"?>
<!-- Created with Inkscape (http://www.inkscape.org/) -->

<svg
   xmlns:dc="http://purl.org/dc/elements/1.1/"
   xmlns:cc="http://creativecommons.org/ns#"
   xmlns:rdf="http://www.w3.org/1999/02/22-rdf-syntax-ns#"
   xmlns:svg="http://www.w3.org/2000/svg"
   xmlns="http://www.w3.org/2000/svg"
   version="1.1"
   width="300"
   height="146.58876"
   id="svg3586"
   transform="scale(3)"
   viewBox="165 26 200 20"
   >
  <defs
     id="defs3588">
    <clipPath
       id="clipPath2124">
      <path
         d="M 0,0 792,0 792,612 0,612 0,0 Z"
         id="path2126" />
    </clipPath>
  </defs>
  <metadata
     id="metadata3591">
    <rdf:RDF>
      <cc:Work
         rdf:about="">
        <dc:format>image/svg+xml</dc:format>
        <dc:type
           rdf:resource="http://purl.org/dc/dcmitype/StillImage" />
        <dc:title></dc:title>
      </cc:Work>
    </rdf:RDF>
  </metadata>
  <g
     transform="translate(-310.85335,-287.94729)"
     id="layer1">
    <g
       transform="matrix(2.8047213,0,0,-2.8047213,208.59574,1903.469)"
       id="g2120">
      <g
         clip-path="url(#clipPath2124)"
         id="g2122">
        
        <g
           transform="translate(79.4941,564.646)"
           id="g2152">
          <path
             d="m 0,0 c -0.114,0 -0.388,-0.014 -0.44,0 -0.052,0.014 -0.102,0.037 -0.121,0.036 -0.042,-0.004 -0.043,-0.085 -0.061,-0.113 -0.056,-0.152 -0.204,-0.4 -0.176,-0.601 0.01,-0.068 -0.035,-0.131 0.026,-0.182 0.237,0.026 0.483,0.01 0.638,-0.065 0.026,-0.028 -0.018,-0.124 -0.007,-0.163 -0.008,-0.12 -0.148,-0.198 -0.152,-0.329 0,-0.033 -0.068,-0.293 -0.102,-0.406 -0.02,-0.068 -0.021,-0.145 -0.02,-0.223 0.006,-0.147 -0.147,-0.545 -0.178,-0.631 -0.061,-0.172 -0.099,-0.344 -0.075,-0.531 0.104,-0.031 0.212,-0.008 0.32,-0.006 0.166,0.003 0.328,0 0.464,0.03 0.03,0.122 0.08,0.225 0.153,0.304 0.081,0.5 0.226,1.038 0.35,1.513 0.054,0.21 0.039,0.447 0.253,0.557 0.235,-0.064 0.521,0.038 0.709,-0.027 0.1,0.065 0.121,0.188 0.121,0.188 l 0.044,0.218 c 0,0 0.063,0.284 0.071,0.431 C 1.282,0.114 0.592,0.001 0,0 m 29.232,-0.06 c -0.086,-0.187 -0.202,-0.345 -0.189,-0.636 -0.402,-0.773 -0.482,-1.556 -0.757,-2.437 0.243,-0.164 0.492,-0.021 0.81,0 0.331,0.55 0.501,1.266 0.717,1.933 0,0.036 -0.044,0.025 -0.051,0.054 0.076,0.055 0.126,0.098 0.046,0.186 0.211,0.2 0.333,0.584 0.435,0.894 C 29.985,0 29.516,-0.051 29.232,-0.06 m 32.064,-2.782 c 0.102,-0.375 1.181,-0.206 0.961,0.431 -0.262,0.373 -1.1,0.078 -0.961,-0.431 m 1.518,2.876 C 62.752,0.052 62.635,0.079 62.543,0.086 62.382,0.1 62.23,0.183 62.23,0.183 c 0,0 -0.296,-0.623 -0.445,-0.913 0.117,-0.27 -0.297,-0.535 -0.177,-0.887 0.227,-0.079 0.424,0.079 0.709,0.025 0.413,0.455 0.646,1.051 0.973,1.592 -0.004,0.055 -0.097,0.088 -0.097,0.088 0,0 -0.12,0.025 -0.176,0.01 -0.079,-0.02 -0.163,-0.047 -0.203,-0.064 m -3.108,-0.128 c -0.557,-0.261 -1.219,-0.417 -1.139,-1.318 0.203,-0.26 0.857,-0.273 0.861,-0.658 0.002,-0.081 -0.113,-0.254 -0.177,-0.303 -0.265,-0.204 -0.848,-0.177 -1.164,-0.329 -0.026,-0.128 -0.098,-0.204 -0.076,-0.38 0.044,-0.022 0.078,-0.057 0.1,-0.102 0.296,-0.005 0.789,-10e-4 1.04,0.052 0.39,0.081 1.357,0.393 1.492,0.607 0.126,0.197 -0.015,0.439 -0.126,0.531 -0.174,0.145 -0.507,0.126 -0.634,0.33 -0.102,0.81 0.716,0.702 1.267,0.861 0.027,0.252 0.139,0.417 0.202,0.632 -0.362,0.329 -1.143,0.122 -1.646,0.077 M 49.688,-2.259 c 0.059,-0.305 0.332,-0.472 0.356,-0.809 -0.133,-0.031 -0.264,-0.146 -0.446,-0.208 -0.148,-0.05 -0.406,-0.094 -0.406,-0.094 0,0 -0.087,0.216 -0.146,0.303 -0.175,0.258 -0.254,0.714 -0.546,0.755 -0.332,-0.161 -0.128,-0.612 -0.378,-0.838 -0.162,-0.006 -0.286,-0.028 -0.411,-0.034 -0.112,-0.005 -0.227,0.009 -0.359,-0.007 -0.006,0 -0.01,0 -0.013,-0.001 -0.024,0.045 -0.039,-0.008 -0.084,0.016 -0.005,0.044 -0.01,0.08 0.009,0.146 0.019,0.064 0.012,0.157 0.023,0.197 0.271,0.344 0.199,0.958 0.428,1.344 0.031,0.084 0.25,0.622 0.305,0.925 0.041,0.245 0.051,0.389 0.277,0.465 0.241,0.078 0.769,0.077 1.013,0.102 0.155,0.014 0.308,-0.011 0.481,0 0.525,0.109 1.02,-0.247 1.063,-0.798 -0.082,-0.8 -0.771,-0.983 -1.166,-1.464 m -0.177,1.592 c -0.715,0.153 -0.725,-0.411 -0.834,-0.873 0.027,-0.067 0.1,-0.087 0.126,-0.156 0.438,0.114 0.785,0.32 0.885,0.773 -0.073,0.069 -0.09,0.199 -0.177,0.256 m 6.439,0.612 c -0.243,-1.072 -0.662,-1.999 -0.895,-3.082 0.732,-0.102 1.341,0.07 2.127,0.053 0.075,0.099 0.092,0.208 0.131,0.336 0.036,0.117 0.097,0.248 0.106,0.403 -0.13,-0.018 -0.291,0.027 -0.46,0.027 -0.277,0.003 -0.534,-0.011 -0.534,-0.011 0,0 0.046,0.38 0.199,0.427 0.129,0 0.312,-0.011 0.508,-0.025 0.155,-0.012 0.329,-0.036 0.429,0.003 0.058,0.156 0.141,0.378 0.121,0.613 -0.207,0.043 -0.491,-0.01 -0.674,0.005 -0.092,0.008 -0.238,0.035 -0.238,0.035 0,0 0.067,0.287 0.091,0.365 0.111,0.047 0.268,0.022 0.424,0.017 0.238,-0.01 0.471,-0.022 0.529,-0.034 C 58.019,-0.719 58.07,-0.31 58.178,0 57.542,0.043 56.526,-0.009 55.95,-0.055 M 5.945,-0.486 C 6.433,-0.713 6.414,-0.016 6.654,0.172 6.662,0.221 6.62,0.222 6.604,0.249 6.63,0.299 6.716,0.289 6.705,0.375 6.181,0.556 6.003,-0.034 5.945,-0.486 M 46.782,0.055 C 46.452,0.062 46.081,-0.002 45.794,0 c -0.235,0.003 -0.398,0.025 -0.46,0 -0.032,-0.059 -0.123,-0.281 -0.151,-0.343 -0.329,-0.713 -0.496,-1.596 -0.847,-2.284 0,-0.231 -0.14,-0.342 -0.026,-0.557 0.398,0.017 0.937,-10e-4 1.467,0 0.225,0 0.465,-0.038 0.667,0 0.037,0.209 0.166,0.472 0.17,0.715 -0.284,0.066 -0.695,-0.075 -0.913,-0.022 -0.088,0.021 -0.095,0.18 -0.095,0.18 l 0.093,0.296 c 0,0 0.21,0.044 0.452,0.033 0.259,-0.012 0.555,-0.076 0.665,-0.01 0.074,0.17 0.13,0.36 0.102,0.636 -0.234,0.034 -0.498,-0.033 -0.732,-10e-4 -0.123,0.017 -0.244,-0.039 -0.288,0.06 0.047,0.102 0.053,0.297 0.13,0.367 0.077,-0.017 0.236,0.029 0.356,0.049 0.22,0.032 0.608,-0.018 0.836,-0.024 0.055,0.102 0.034,0.182 0.084,0.294 0.07,0.163 0.101,0.364 0.12,0.581 -0.149,0.003 -0.382,0.08 -0.642,0.085 M -8.889,0 c -0.537,0.019 -1.09,-0.062 -1.663,-0.027 -0.182,-0.364 -0.449,-0.647 -0.453,-1.145 -0.126,-0.322 -0.24,-0.65 -0.394,-0.934 0.046,-0.489 -0.352,-0.63 -0.31,-1.095 0.012,-0.036 0.323,-0.021 0.509,-0.019 0.333,0.006 0.702,-0.005 1.028,0.022 0.326,0.025 0.556,0.029 0.676,0.014 0.058,0.133 0.108,0.339 0.157,0.531 0.019,0.07 0.067,0.203 0.063,0.278 -0.051,0.035 -0.127,0.007 -0.202,0.005 -0.181,-0.005 -0.401,-0.003 -0.572,0.017 -0.153,0.018 -0.219,-0.022 -0.219,-0.022 0,0 0.069,0.444 0.168,0.524 0.109,-0.051 0.278,-0.002 0.383,0 0.208,0.002 0.35,0.005 0.588,-0.009 0.046,0.088 0.084,0.207 0.121,0.336 0.027,0.094 0.094,0.21 0.057,0.342 -0.157,-0.028 -0.399,-0.016 -0.591,0.003 -0.156,0.014 -0.327,-0.036 -0.384,0.081 0.032,0.068 0.011,0.192 0.083,0.225 0.189,0.09 0.519,0.052 0.807,0.054 0.156,0.002 0.357,0.044 0.357,0.044 0,0 0.019,0.167 0.125,0.365 0.077,0.144 0.161,0.288 0.192,0.41 -0.159,0.069 -0.348,-0.006 -0.526,0 m 3.411,0.067 c 0.128,-0.975 -0.041,-1.826 -0.056,-2.756 -0.003,-0.128 -0.002,-0.332 0.003,-0.464 -0.102,-0.072 -0.215,-0.017 -0.417,-0.031 -0.091,-0.006 -0.192,-0.019 -0.275,-0.017 -0.07,10e-4 -0.164,-0.018 -0.214,0.023 -0.045,0.221 0.063,0.287 -0.03,0.433 -0.453,10e-4 -0.787,0.107 -1.103,0.107 -0.055,-0.017 -0.108,-0.093 -0.161,-0.128 -0.151,-0.104 -0.214,-0.268 -0.303,-0.417 -0.058,-0.033 -0.171,0.014 -0.276,0.009 -0.098,-0.005 -0.223,-0.013 -0.338,0.007 -0.076,0.015 -0.207,-0.033 -0.222,0.019 -0.013,0.049 0.11,0.392 0.199,0.544 0.139,0.236 0.306,0.449 0.368,0.759 0.448,0.54 0.619,1.382 1.146,1.845 0.537,0.042 1.16,0.088 1.679,0.067 M -6.33,-1.824 c 0.105,0.215 -0.024,0.522 -0.011,0.87 -0.08,0.024 -0.089,0.125 -0.187,0.128 -0.363,-0.254 -0.649,-0.578 -0.813,-1.021 0.08,-0.188 0.378,-0.14 0.524,-0.258 0.14,0.167 0.388,0.08 0.487,0.281 m 41.151,1.838 c -0.102,-0.007 -0.219,0.023 -0.302,0.007 -0.293,-0.056 -0.526,-0.342 -0.764,-0.41 -0.195,-0.212 -0.139,-0.691 -0.272,-0.985 0.266,-0.225 0.674,-0.3 0.705,-0.787 -0.167,-0.271 -0.592,-0.279 -1.046,-0.259 -0.083,-0.172 -0.171,-0.342 -0.205,-0.574 0.115,-0.182 0.712,-0.184 1.079,-0.142 0.361,0.041 0.814,0.219 1.095,0.325 0.204,0.079 0.415,0.508 0.352,0.717 -0.089,0.29 -0.731,0.338 -0.812,0.678 -0.129,0.543 0.566,0.699 1.054,0.651 0.118,0.201 0.267,0.538 0.17,0.801 -0.309,0.146 -0.685,0.007 -1.054,-0.022 m 8.99,-2.063 c 0.052,0.192 0.043,0.415 0.1,0.598 0.031,0.099 0.141,0.191 0.179,0.286 0.056,0.141 0.066,0.301 0.135,0.494 0.052,0.156 0.184,0.392 0.133,0.521 -0.018,0.043 0.052,0.128 0.023,0.15 -0.091,0.071 -0.383,0.014 -0.632,0 -0.25,-0.014 -0.458,0.014 -0.458,0.014 0,0 -0.037,-0.146 -0.074,-0.243 -0.077,-0.205 -0.152,-0.942 -0.152,-0.942 0,0 -0.118,-0.057 -0.258,-0.098 -0.112,-0.032 -0.415,-0.024 -0.613,0.01 -0.104,0.018 -0.178,0.068 -0.178,0.068 0,0 -0.032,0.028 -0.039,0.082 -0.007,0.066 0.014,0.204 0.014,0.204 0,0 0.06,0.239 0.126,0.467 0.045,0.155 0.114,0.283 0.083,0.411 -0.237,0.091 -0.71,0.037 -0.71,0.037 0,0 -0.079,-0.159 -0.11,-0.22 -0.052,-0.109 -0.017,-0.357 -0.063,-0.513 -0.042,-0.146 -0.111,-0.285 -0.176,-0.418 -0.108,-0.22 -0.243,-0.925 -0.294,-1.085 -0.097,-0.297 -0.18,-0.612 -0.156,-0.94 0.156,-0.035 0.303,-0.036 0.491,-0.018 0.086,0.008 0.177,0.015 0.274,0 0.19,0.295 0.344,1.027 0.421,1.044 0.078,0.015 0.143,0.03 0.217,0.039 0.061,0.009 0.15,-0.049 0.237,-0.062 0.144,-0.022 0.286,-0.007 0.286,-0.007 0,0 0.078,-0.106 0.054,-0.184 -0.036,-0.118 -0.079,-0.328 -0.122,-0.509 -0.028,-0.12 -0.037,-0.206 -0.006,-0.321 0.15,-0.029 0.33,-0.007 0.495,0 0.167,0.006 0.32,-0.003 0.456,0.02 0.048,0.351 0.236,0.819 0.317,1.115 m 9.602,2.119 c 0.61,0.046 1.192,-0.184 1.439,-0.694 0.109,-0.691 -0.005,-1.179 -0.269,-1.595 -0.216,-0.341 -0.533,-0.654 -0.912,-0.822 -0.268,-0.118 -0.661,-0.185 -1.225,-0.235 -0.411,0.074 -0.833,0.227 -1.063,0.495 -0.036,0.169 -0.105,0.302 -0.177,0.432 -0.046,0.688 0.175,1.192 0.506,1.591 0.344,0.413 1.038,0.779 1.701,0.828 m 0.248,-1.151 c -0.456,0.334 -1.358,-0.307 -1.392,-0.783 -0.017,-0.237 0.177,-0.516 0.43,-0.566 0.633,-0.125 0.953,0.464 1.14,0.808 -0.105,0.109 -0.006,0.188 0.051,0.27 -0.149,0.066 -0.121,0.192 -0.229,0.271 m -56.239,-1.08 c 0.155,-0.31 0.385,-0.545 0.405,-0.989 -0.259,-0.101 -0.487,-0.025 -0.66,-0.05 -0.036,-0.004 -0.177,-0.044 -0.27,-0.017 -0.04,0.011 -0.072,0.072 -0.084,0.091 -0.029,0.047 -0.055,0.105 -0.079,0.168 -0.054,0.147 -0.096,0.322 -0.157,0.462 -0.048,0.111 -0.179,0.213 -0.265,0.222 -0.073,-0.075 -0.129,-0.228 -0.184,-0.39 -0.043,-0.123 -0.084,-0.251 -0.133,-0.352 -0.014,-0.028 -0.044,-0.152 -0.06,-0.168 -0.01,-0.01 -0.165,0.014 -0.349,0.01 -0.106,-0.003 -0.232,-0.011 -0.317,-0.01 -0.038,0 -0.083,-0.023 -0.126,-0.02 -0.023,0 -0.062,0.059 -0.047,0.095 0.012,0.092 0.021,0.197 0.037,0.284 0.107,0.559 0.324,1.008 0.571,1.428 -0.023,0.262 0.225,0.985 0.266,1.097 0.035,0.093 0.068,0.188 0.116,0.27 0.745,0.261 2.452,0.221 2.506,-0.59 0.013,-0.199 -0.163,-0.719 -0.256,-0.86 -0.216,-0.324 -0.7,-0.379 -0.914,-0.681 m -0.453,0.481 c 0.279,0.203 0.592,0.369 0.559,0.885 -0.086,0.031 -0.079,0.102 -0.126,0.127 -0.158,0.085 -0.306,0.107 -0.407,0.053 -0.193,-0.194 -0.421,-0.962 -0.421,-0.962 0,0 0.228,-0.103 0.395,-0.103 M 32.974,0 C 32.848,0.01 32.653,0.016 32.506,0 32.265,-0.024 32.029,0 31.74,0.001 31.465,0.004 31.192,0.026 30.999,-0.013 30.959,-0.079 30.87,-0.4 30.846,-0.485 c -0.259,-0.896 -0.601,-1.703 -0.841,-2.62 0.693,-0.108 1.518,-0.058 2.127,0 0.124,0.228 0.289,0.413 0.253,0.813 -0.368,0.046 -0.788,-0.23 -1.013,0 -0.033,0.19 0.063,0.239 0.127,0.326 0.216,-0.009 0.843,0.038 0.843,0.038 0,0 0.27,0.339 0.244,0.613 -0.226,0.172 -0.861,-0.095 -1.01,0.162 0.151,0.38 0.919,0.101 1.239,0.298 0.094,0.271 0.277,0.548 0.379,0.809 -0.044,0.102 -0.133,0.04 -0.22,0.046 m 6.315,-0.319 c 0.036,0.138 0.098,0.266 0.003,0.358 -0.555,-0.09 -1.217,-0.044 -1.82,-0.039 -0.313,0.003 -0.596,0.029 -0.868,-0.056 0.005,-0.3 -0.151,-0.559 -0.171,-0.832 0.052,-0.045 0.166,-0.011 0.248,0 0.138,0.02 0.38,-0.003 0.483,0.015 -0.032,-0.166 -0.032,-0.257 -0.138,-0.479 -0.129,-0.269 -0.223,-0.659 -0.279,-0.912 -0.073,-0.16 -0.148,-0.449 -0.148,-0.449 0,0 -0.139,-0.335 -0.157,-0.488 0.261,-0.059 0.549,0.081 0.887,0.028 0.189,0.669 0.422,1.287 0.611,1.955 0.05,0.077 0.115,0.264 0.115,0.264 0,0 0.156,0.049 0.309,0.057 0.266,0.013 0.617,-0.072 0.803,0.009 0.016,0.167 0.071,0.378 0.122,0.569 M 9.056,0.031 C 7.9,0.071 7.308,-0.292 6.76,-0.861 6.548,-1.445 7.269,-1.577 7.269,-1.987 c 0,-0.122 0.07,-0.225 -0.001,-0.292 -0.189,-0.176 -0.659,-0.153 -1.104,-0.085 -0.081,-0.24 -0.21,-0.492 -0.155,-0.805 0.87,-0.278 1.62,-0.059 2.236,0.304 0.063,0.197 0.19,0.294 0.2,0.492 0.02,0.371 -0.246,0.518 -0.476,0.693 -0.154,0.118 -0.436,0.347 -0.436,0.591 0,0.111 0.087,0.265 0.224,0.316 0.164,0.061 0.385,0.008 0.428,0.011 0.229,0.017 0.501,-0.098 0.767,-0.013 0.017,0.287 0.224,0.372 0.209,0.696 -0.047,0.024 -0.081,0.061 -0.105,0.11 M 16.783,-0.07 C 16.6,-0.575 16.5,-1.161 16.28,-1.63 c -0.023,-0.088 0.084,-0.02 0.061,-0.107 -0.244,-0.382 -0.354,-0.894 -0.469,-1.4 0.207,-0.115 0.587,-0.024 0.867,-0.053 0.137,0.247 0.258,0.513 0.266,0.887 0.039,0.074 0.105,0.164 0.127,0.243 0.088,0.308 0.117,0.641 0.21,0.941 0.034,0.106 0.138,0.183 0.173,0.295 0.07,0.225 0.106,0.493 0.127,0.754 -0.238,0.259 -0.55,-0.029 -0.859,0 M 3.35,0 C 3.239,-0.008 3.162,-0.008 3.077,0 2.91,0.017 2.766,0.056 2.641,0.01 2.556,-0.156 2.468,-0.358 2.381,-0.566 2.331,-0.686 2.323,-0.807 2.272,-0.923 2.203,-1.085 2.09,-1.237 2.025,-1.367 1.956,-1.857 1.736,-2.194 1.619,-2.632 1.587,-2.714 1.701,-2.651 1.669,-2.733 1.591,-2.83 1.53,-3.062 1.593,-3.215 c 0.283,-0.078 0.579,0.044 0.81,0.101 -0.027,0.128 0.225,0.375 0.228,0.539 0.001,0.045 0.08,0.413 0.177,0.443 0.093,0.028 0.187,0.027 0.287,0.022 0.067,-0.002 0.137,0.009 0.214,-0.03 C 3.413,-2.194 3.604,-2.163 3.644,-2.229 3.604,-2.321 3.555,-2.604 3.51,-2.691 3.445,-2.816 3.378,-2.962 3.378,-3.151 c 0.149,-0.053 0.364,-0.032 0.564,-0.03 0.13,0.002 0.287,-0.042 0.333,0.034 0.01,0.061 -0.003,0.228 0.013,0.283 0.136,0.535 0.48,0.864 0.52,1.497 0.204,0.388 0.429,0.753 0.507,1.266 C 5.034,0.012 4.841,-0.05 4.505,-0.05 4.327,-0.269 4.246,-0.585 4.201,-0.936 4.161,-0.99 4.177,-1.146 4.122,-1.208 4.062,-1.274 3.931,-1.246 3.931,-1.246 c 0,0 -0.522,-0.003 -0.769,-0.019 -0.006,0.051 -0.068,0.049 -0.075,0.101 0.123,0.383 0.374,0.771 0.48,1.174 C 3.521,0.03 3.415,0.004 3.35,0 m 8.397,-0.5 c -0.2,-0.333 -0.268,-0.609 -0.426,-0.955 -0.1,-0.222 -0.181,-0.439 -0.207,-0.633 -0.035,-0.008 -0.044,-0.035 -0.1,-0.024 -0.049,-0.442 -0.394,-0.628 -0.4,-1.076 0.099,-0.044 0.221,-0.026 0.348,-0.027 0.196,-0.001 0.404,-0.001 0.551,0.014 0.305,0.397 0.296,1.088 0.832,1.336 0.234,-0.181 0.162,-0.68 0.229,-1.023 0.023,-0.121 0.086,-0.281 0.086,-0.281 0,0 0.185,0.003 0.25,0.005 0.146,0.005 0.252,-0.044 0.371,-0.009 0.026,0.008 0.146,0.015 0.146,0.015 0,0 0.01,0.1 0.028,0.124 0.107,0.132 0.174,0.355 0.309,0.486 0.023,0.023 0.082,-0.005 0.103,0.023 0.184,0.233 0.217,0.626 0.518,0.696 0.048,-0.035 0.11,-0.056 0.116,-0.133 -0.088,-0.343 -0.026,-0.81 -0.105,-1.137 0.107,-0.152 0.546,-0.109 0.754,-0.084 0.044,0.199 0.138,0.588 0.063,0.745 0.028,0.035 0.071,0.051 0.107,0.075 -0.129,0.359 0.214,0.924 0.095,1.3 0.148,0.25 0.224,0.582 0.224,1.003 -0.53,0.024 -0.972,0.103 -1.361,-0.009 -0.296,-0.485 -0.54,-1.131 -0.917,-1.483 -0.38,0.199 -0.196,1.05 -0.366,1.528 C 12.667,0.018 12.22,0 12,-0.04 11.958,-0.046 11.877,-0.06 11.877,-0.06 l -0.014,-0.102 c 0,0 -0.05,-0.228 -0.116,-0.338 M 26.962,0.014 C 26.639,-0.018 26.284,0.012 26.006,0 c -0.122,-0.005 -0.401,0.006 -0.401,0.006 0,0 0.01,-0.255 -0.061,-0.432 -0.085,-0.215 -0.242,-0.49 -0.286,-0.641 0.286,-0.211 0.844,0.191 1.013,-0.135 -0.232,-0.635 -0.522,-1.213 -0.659,-1.948 0.318,-0.058 0.56,-0.042 0.912,0.053 -0.018,0.182 0.145,0.346 0.202,0.533 0.016,0.054 -0.019,0.109 0,0.161 0.035,0.091 0.151,0.176 0.153,0.266 0,0.033 -0.06,0.082 -0.05,0.109 0.004,0.017 0.088,0.028 0.1,0.053 0.07,0.139 0.07,0.395 0.151,0.56 0.05,0.102 0.155,0.292 0.155,0.292 0,0 0.26,0.052 0.507,0.08 0.151,0.017 0.268,-0.072 0.402,-0.038 0.099,0.288 0.286,0.69 0.227,1.057 -0.45,-0.045 -0.841,0.091 -1.409,0.038 M 22.767,-0.708 C 22.818,-0.507 22.952,0 22.952,0 c 0,0 -0.067,-0.009 -0.137,0 -0.066,0.01 -0.143,-0.003 -0.167,0 -0.191,0.023 -0.392,0.014 -0.574,0.004 -0.141,-0.449 -0.312,-0.94 -0.467,-1.378 -0.024,-0.09 0.084,-0.022 0.06,-0.111 -0.19,-0.521 -0.392,-1.004 -0.466,-1.638 0.038,-0.044 0.112,-0.016 0.189,-0.022 0.096,-0.007 0.226,-0.017 0.226,-0.017 0,0 0.108,-0.046 0.229,-0.051 0.101,-0.004 0.237,0.007 0.305,0.01 0.055,0.079 0.022,0.268 0.049,0.382 0.044,0.189 0.072,0.399 0.157,0.542 0.032,0.054 0.074,0.098 0.126,0.128 0.124,0.069 0.205,-0.002 0.305,0 0.202,0.006 0.428,0.138 0.511,-0.055 0.029,-0.291 -0.149,-0.56 -0.112,-0.798 0.01,-0.069 -0.027,-0.116 -0.027,-0.18 0.283,-0.028 0.532,0.078 0.826,0.036 0.083,0.127 0.194,0.416 0.105,0.554 0.168,0.398 0.258,0.876 0.342,1.359 0.142,0.304 0.262,0.631 0.348,0.993 0.02,0.083 0.083,0.259 0.083,0.259 0,0 -0.095,0.004 -0.126,0.011 C 24.667,0.042 24.574,0.004 24.498,0 c -0.093,-0.005 -0.17,0.02 -0.256,0 -0.117,-0.026 -0.239,0.029 -0.319,0 -0.026,-0.009 -0.021,-0.408 -0.051,-0.504 -0.042,-0.134 -0.08,-0.279 -0.077,-0.398 -0.068,-0.302 -0.47,-0.119 -0.843,-0.196 -0.119,-0.022 -0.202,-0.051 -0.258,0.056 -0.062,0.141 0.045,0.229 0.073,0.334 m -1.634,0.573 c 0.007,-0.299 -0.035,-0.55 -0.196,-0.681 -0.468,0.121 -1.059,-0.057 -1.442,-0.214 -0.066,-0.029 -0.14,-0.01 -0.164,-0.025 -0.372,-0.213 -0.68,-1.008 -0.198,-1.288 0.259,0.005 0.609,-0.128 0.699,-0.021 0.091,0.105 -0.122,0.509 -0.065,0.546 0.058,0.037 1.009,0.146 1.04,-0.027 0.011,-0.339 -0.292,-0.572 -0.201,-0.835 -0.107,-0.391 -0.596,-0.353 -0.89,-0.535 -0.909,-0.101 -1.658,0.017 -1.849,0.835 -0.048,0.658 0.126,1 0.383,1.372 0.3,0.433 0.851,0.612 1.307,0.883 0.382,0.026 1.155,0.246 1.576,-0.01"
             id="path2154"
             style="fill:#fff200;fill-opacity:1;fill-rule:nonzero;stroke:none" />
        </g>
        
        
      </g>
    </g>
  </g>
</svg>
